<?xml version="1.0" encoding="UTF-8" standalone="no"?>
<!DOCTYPE svg PUBLIC "-//W3C//DTD SVG 1.1//EN" "http://www.w3.org/Graphics/SVG/1.1/DTD/svg11.dtd">
<svg width="100%" height="100%" viewBox="0 0 1200 800" version="1.1" xmlns="http://www.w3.org/2000/svg" xmlns:xlink="http://www.w3.org/1999/xlink" xml:space="preserve" xmlns:serif="http://www.serif.com/" style="fill-rule:evenodd;clip-rule:evenodd;stroke-linejoin:round;stroke-miterlimit:2;">
    <g>
        <path d="M604.223,777.293L601.863,777.293L601.863,792.207L604.223,792.207L604.223,777.293ZM336.747,777.293L334.387,777.293L334.387,792.207L336.747,792.207L336.747,777.293ZM197.504,777.293L195.144,777.293L195.144,792.207L197.504,792.207L197.504,777.293ZM60.616,792.207L62.976,792.207L62.976,777.293L60.616,777.293L60.616,792.207ZM871.699,777.293L869.339,777.293L869.339,792.207L871.699,792.207L871.699,777.293ZM1004.65,792.207L1007.01,792.207L1007.01,777.293L1004.65,777.293L1004.65,792.207ZM1141.54,777.293L1139.18,777.293L1139.18,792.207L1141.54,792.207L1141.54,777.293ZM735.601,792.207L737.961,792.207L737.961,777.293L735.601,777.293L735.601,792.207ZM468.911,792.207L471.271,792.207L471.271,777.293L468.911,777.293L468.911,792.207ZM60.616,762.378L62.976,762.378L62.976,747.463L60.616,747.463L60.616,762.378ZM468.911,762.378L471.271,762.378L471.271,747.463L468.911,747.463L468.911,762.378ZM735.601,762.378L737.961,762.378L737.961,747.463L735.601,747.463L735.601,762.378ZM871.699,747.463L869.339,747.463L869.339,762.378L871.699,762.378L871.699,747.463ZM1004.65,762.378L1007.01,762.378L1007.01,747.463L1004.65,747.463L1004.65,762.378ZM1141.54,747.463L1139.18,747.463L1139.18,762.378L1141.54,762.378L1141.54,747.463ZM197.504,747.463L195.144,747.463L195.144,762.378L197.504,762.378L197.504,747.463ZM336.747,747.463L334.387,747.463L334.387,762.378L336.747,762.378L336.747,747.463ZM604.223,747.463L601.863,747.463L601.863,762.378L604.223,762.378L604.223,747.463ZM159.341,746.503L174.257,746.503L174.257,744.143L159.341,744.143L159.341,746.503ZM99.682,746.503L114.594,746.503L114.594,744.143L99.682,744.143L99.682,746.503ZM1207.78,744.143L1192.86,744.143L1192.86,746.503L1207.78,746.503L1207.78,744.143ZM1133.21,746.503L1148.12,746.503L1148.12,744.143L1133.21,744.143L1133.21,746.503ZM283.057,746.503L283.057,744.143L268.698,744.143L268.698,746.503L283.057,746.503ZM1043.72,746.503L1058.63,746.503L1058.63,744.143L1043.72,744.143L1043.72,746.503ZM805.078,746.503L819.993,746.503L819.993,744.143L805.078,744.143L805.078,746.503ZM984.056,746.503L998.971,746.503L998.971,744.143L984.056,744.143L984.056,746.503ZM1103.38,746.503L1118.29,746.503L1118.29,744.143L1103.38,744.143L1103.38,746.503ZM655.929,746.503L670.844,746.503L670.844,744.143L655.929,744.143L655.929,746.503ZM745.419,746.503L760.334,746.503L760.334,744.143L745.419,744.143L745.419,746.503ZM596.27,746.503L611.185,746.503L611.185,744.143L596.27,744.143L596.27,746.503ZM566.44,746.503L581.355,746.503L581.355,744.143L566.44,744.143L566.44,746.503ZM506.781,746.503L521.696,746.503L521.696,744.143L506.781,744.143L506.781,746.503ZM894.567,746.503L909.482,746.503L909.482,744.143L894.567,744.143L894.567,746.503ZM357.631,746.503L372.546,746.503L372.546,744.143L357.631,744.143L357.631,746.503ZM864.737,746.503L879.652,746.503L879.652,744.143L864.737,744.143L864.737,746.503ZM1163.04,746.503L1177.95,746.503L1177.95,744.143L1163.04,744.143L1163.04,746.503ZM189.173,746.503L204.088,746.503L204.088,744.143L189.173,744.143L189.173,746.503ZM10.193,746.503L25.108,746.503L25.108,744.143L10.193,744.143L10.193,746.503ZM69.852,746.503L84.767,746.503L84.767,744.143L69.852,744.143L69.852,746.503ZM263.743,744.143L248.828,744.143L248.828,746.503L263.743,746.503L263.743,744.143ZM954.227,746.503L969.142,746.503L969.142,744.143L954.227,744.143L954.227,746.503ZM626.1,746.503L641.015,746.503L641.015,744.143L626.1,744.143L626.1,746.503ZM1073.54,746.503L1088.46,746.503L1088.46,744.143L1073.54,744.143L1073.54,746.503ZM715.589,746.503L730.504,746.503L730.504,744.143L715.589,744.143L715.589,746.503ZM924.397,746.503L939.312,746.503L939.312,744.143L924.397,744.143L924.397,746.503ZM1013.89,746.503L1028.8,746.503L1028.8,744.143L1013.89,744.143L1013.89,746.503ZM327.802,746.503L342.717,746.503L342.717,744.143L327.802,744.143L327.802,746.503ZM40.022,746.503L54.937,746.503L54.937,744.143L40.022,744.143L40.022,746.503ZM476.951,746.503L491.866,746.503L491.866,744.143L476.951,744.143L476.951,746.503ZM219.004,746.503L233.912,746.503L233.912,744.143L219.004,744.143L219.004,746.503ZM417.291,746.503L432.206,746.503L432.206,744.143L417.291,744.143L417.291,746.503ZM447.121,746.503L462.036,746.503L462.036,744.143L447.121,744.143L447.121,746.503ZM129.51,746.503L144.425,746.503L144.425,744.143L129.51,744.143L129.51,746.503ZM297.972,746.503L312.887,746.503L312.887,744.143L297.972,744.143L297.972,746.503ZM387.461,746.503L402.376,746.503L402.376,744.143L387.461,744.143L387.461,746.503ZM536.611,746.503L551.525,746.503L551.525,744.143L536.611,744.143L536.611,746.503ZM685.76,746.503L700.674,746.503L700.674,744.143L685.76,744.143L685.76,746.503ZM834.908,746.503L849.822,746.503L849.822,744.143L834.908,744.143L834.908,746.503ZM775.249,746.503L790.163,746.503L790.163,744.143L775.249,744.143L775.249,746.503ZM60.616,732.547L62.976,732.547L62.976,717.633L60.616,717.633L60.616,732.547ZM195.144,732.547L197.504,732.547L197.504,717.633L195.144,717.633L195.144,732.547ZM601.863,732.547L604.223,732.547L604.223,717.633L601.863,717.633L601.863,732.547ZM468.911,732.547L471.271,732.547L471.271,717.633L468.911,717.633L468.911,732.547ZM735.601,732.547L737.961,732.547L737.961,717.633L735.601,717.633L735.601,732.547ZM1139.18,732.547L1141.54,732.547L1141.54,717.633L1139.18,717.633L1139.18,732.547ZM869.339,732.547L871.699,732.547L871.699,717.633L869.339,717.633L869.339,732.547ZM1004.65,732.547L1007.01,732.547L1007.01,717.633L1004.65,717.633L1004.65,732.547ZM334.387,732.547L336.747,732.547L336.747,717.633L334.387,717.633L334.387,732.547ZM871.699,687.8L869.339,687.8L869.339,702.718L871.699,702.718L871.699,687.8ZM735.601,702.718L737.961,702.718L737.961,687.8L735.601,687.8L735.601,702.718ZM1141.54,687.8L1139.18,687.8L1139.18,702.718L1141.54,702.718L1141.54,687.8ZM1004.65,702.718L1007.01,702.718L1007.01,687.8L1004.65,687.8L1004.65,702.718ZM468.911,702.718L471.271,702.718L471.271,687.8L468.911,687.8L468.911,702.718ZM197.504,687.8L195.144,687.8L195.144,702.718L197.504,702.718L197.504,687.8ZM60.616,702.718L62.976,702.718L62.976,687.8L60.616,687.8L60.616,702.718ZM336.747,687.8L334.387,687.8L334.387,702.718L336.747,702.718L336.747,687.8ZM604.223,687.8L601.863,687.8L601.863,702.718L604.223,702.718L604.223,687.8ZM604.223,657.976L601.863,657.976L601.863,672.892L604.223,672.892L604.223,657.976ZM336.747,657.976L334.387,657.976L334.387,672.892L336.747,672.892L336.747,657.976ZM197.504,657.976L195.144,657.976L195.144,672.892L197.504,672.892L197.504,657.976ZM60.616,672.892L62.976,672.892L62.976,657.976L60.616,657.976L60.616,672.892ZM1141.54,657.976L1139.18,657.976L1139.18,672.892L1141.54,672.892L1141.54,657.976ZM468.911,672.892L471.271,672.892L471.271,657.976L468.911,657.976L468.911,672.892ZM735.601,672.892L737.961,672.892L737.961,657.976L735.601,657.976L735.601,672.892ZM871.699,657.976L869.339,657.976L869.339,672.892L871.699,672.892L871.699,657.976ZM1004.65,672.892L1007.01,672.892L1007.01,657.976L1004.65,657.976L1004.65,672.892ZM604.223,628.145L601.863,628.145L601.863,643.06L604.223,643.06L604.223,628.145ZM336.747,628.145L334.387,628.145L334.387,643.06L336.747,643.06L336.747,628.145ZM60.616,643.06L62.976,643.06L62.976,628.145L60.616,628.145L60.616,643.06ZM197.504,628.145L195.144,628.145L195.144,643.06L197.504,643.06L197.504,628.145ZM1141.54,628.145L1139.18,628.145L1139.18,643.06L1141.54,643.06L1141.54,628.145ZM1004.65,643.06L1007.01,643.06L1007.01,628.145L1004.65,628.145L1004.65,643.06ZM871.699,628.145L869.339,628.145L869.339,643.06L871.699,643.06L871.699,628.145ZM468.911,643.06L471.271,643.06L471.271,628.145L468.911,628.145L468.911,643.06ZM735.601,643.06L737.961,643.06L737.961,628.145L735.601,628.145L735.601,643.06ZM334.387,604.898L327.802,604.898L327.802,607.258L334.387,607.258L334.387,613.229L336.747,613.229L336.747,607.258L342.717,607.258L342.717,604.898L336.747,604.898L336.747,598.313L334.387,598.313L334.387,604.898ZM468.911,613.229L471.271,613.229L471.271,598.313L468.911,598.313L468.911,613.229ZM195.144,604.898L189.173,604.898L189.173,607.258L195.144,607.258L195.144,613.229L197.504,613.229L197.504,607.258L204.088,607.258L204.088,604.898L197.504,604.898L197.504,598.313L195.144,598.313L195.144,604.898ZM1004.65,613.229L1007.01,613.229L1007.01,598.313L1004.65,598.313L1004.65,613.229ZM60.616,613.229L62.976,613.229L62.976,598.313L60.616,598.313L60.616,613.229ZM601.863,604.898L596.27,604.898L596.27,607.258L601.863,607.258L601.863,613.229L604.223,613.229L604.223,607.258L611.185,607.258L611.185,604.898L604.223,604.898L604.223,598.313L601.863,598.313L601.863,604.898ZM869.339,604.898L864.737,604.898L864.737,607.258L869.339,607.258L869.339,613.229L871.699,613.229L871.699,607.258L879.652,607.258L879.652,604.898L871.699,604.898L871.699,598.313L869.339,598.313L869.339,604.898ZM1139.18,604.898L1133.21,604.898L1133.21,607.258L1139.18,607.258L1139.18,613.229L1141.54,613.229L1141.54,607.258L1148.12,607.258L1148.12,604.898L1141.54,604.898L1141.54,598.313L1139.18,598.313L1139.18,604.898ZM735.601,613.229L737.961,613.229L737.961,598.313L735.601,598.313L735.601,613.229ZM174.257,604.898L159.341,604.898L159.341,607.258L174.257,607.258L174.257,604.898ZM1088.46,604.898L1073.54,604.898L1073.54,607.258L1088.46,607.258L1088.46,604.898ZM849.822,604.898L834.908,604.898L834.908,607.258L849.822,607.258L849.822,604.898ZM790.163,604.898L775.249,604.898L775.249,607.258L790.163,607.258L790.163,604.898ZM998.971,604.898L984.056,604.898L984.056,607.258L998.971,607.258L998.971,604.898ZM730.504,604.898L715.589,604.898L715.589,607.258L730.504,607.258L730.504,604.898ZM25.108,604.898L10.193,604.898L10.193,607.258L25.108,607.258L25.108,604.898ZM551.525,604.898L536.611,604.898L536.611,607.258L551.525,607.258L551.525,604.898ZM283.057,604.898L268.698,604.898L268.698,607.258L283.057,607.258L283.057,604.898ZM84.767,604.898L69.852,604.898L69.852,607.258L84.767,607.258L84.767,604.898ZM372.546,604.898L357.631,604.898L357.631,607.258L372.546,607.258L372.546,604.898ZM909.482,604.898L894.567,604.898L894.567,607.258L909.482,607.258L909.482,604.898ZM144.425,604.898L129.51,604.898L129.51,607.258L144.425,607.258L144.425,604.898ZM462.036,604.898L447.121,604.898L447.121,607.258L462.036,607.258L462.036,604.898ZM1058.63,604.898L1043.72,604.898L1043.72,607.258L1058.63,607.258L1058.63,604.898ZM233.912,604.898L219.004,604.898L219.004,607.258L233.912,607.258L233.912,604.898ZM939.312,604.898L924.397,604.898L924.397,607.258L939.312,607.258L939.312,604.898ZM402.376,604.898L387.461,604.898L387.461,607.258L402.376,607.258L402.376,604.898ZM1192.86,607.258L1207.78,607.258L1207.78,604.898L1192.86,604.898L1192.86,607.258ZM1177.95,604.898L1163.04,604.898L1163.04,607.258L1177.95,607.258L1177.95,604.898ZM581.355,604.898L566.44,604.898L566.44,607.258L581.355,607.258L581.355,604.898ZM491.866,604.898L476.951,604.898L476.951,607.258L491.866,607.258L491.866,604.898ZM969.142,604.898L954.227,604.898L954.227,607.258L969.142,607.258L969.142,604.898ZM432.206,604.898L417.291,604.898L417.291,607.258L432.206,607.258L432.206,604.898ZM521.696,604.898L506.781,604.898L506.781,607.258L521.696,607.258L521.696,604.898ZM114.594,604.898L99.682,604.898L99.682,607.258L114.594,607.258L114.594,604.898ZM1118.29,604.898L1103.38,604.898L1103.38,607.258L1118.29,607.258L1118.29,604.898ZM819.993,604.898L805.078,604.898L805.078,607.258L819.993,607.258L819.993,604.898ZM700.674,604.898L685.76,604.898L685.76,607.258L700.674,607.258L700.674,604.898ZM641.015,604.898L626.1,604.898L626.1,607.258L641.015,607.258L641.015,604.898ZM760.334,604.898L745.419,604.898L745.419,607.258L760.334,607.258L760.334,604.898ZM312.887,604.898L297.972,604.898L297.972,607.258L312.887,607.258L312.887,604.898ZM670.844,604.898L655.929,604.898L655.929,607.258L670.844,607.258L670.844,604.898ZM54.937,604.898L40.022,604.898L40.022,607.258L54.937,607.258L54.937,604.898ZM248.828,607.258L263.743,607.258L263.743,604.898L248.828,604.898L248.828,607.258ZM1028.8,604.898L1013.89,604.898L1013.89,607.258L1028.8,607.258L1028.8,604.898ZM195.144,583.398L197.504,583.398L197.504,568.482L195.144,568.482L195.144,583.398ZM468.911,583.398L471.271,583.398L471.271,568.482L468.911,568.482L468.911,583.398ZM60.616,583.398L62.976,583.398L62.976,568.482L60.616,568.482L60.616,583.398ZM1004.65,583.398L1007.01,583.398L1007.01,568.482L1004.65,568.482L1004.65,583.398ZM869.339,583.398L871.699,583.398L871.699,568.482L869.339,568.482L869.339,583.398ZM334.387,583.398L336.747,583.398L336.747,568.482L334.387,568.482L334.387,583.398ZM601.863,583.398L604.223,583.398L604.223,568.482L601.863,568.482L601.863,583.398ZM735.601,583.398L737.961,583.398L737.961,568.482L735.601,568.482L735.601,583.398ZM1139.18,583.398L1141.54,583.398L1141.54,568.482L1139.18,568.482L1139.18,583.398ZM62.976,538.65L60.616,538.65L60.616,553.566L62.976,553.566L62.976,538.65ZM871.699,538.65L869.339,538.65L869.339,553.566L871.699,553.566L871.699,538.65ZM336.747,538.65L334.387,538.65L334.387,553.566L336.747,553.566L336.747,538.65ZM1007.01,538.65L1004.65,538.65L1004.65,553.566L1007.01,553.566L1007.01,538.65ZM1141.54,538.65L1139.18,538.65L1139.18,553.566L1141.54,553.566L1141.54,538.65ZM604.223,538.65L601.863,538.65L601.863,553.566L604.223,553.566L604.223,538.65ZM737.961,538.65L735.601,538.65L735.601,553.566L737.961,553.566L737.961,538.65ZM471.271,538.65L468.911,538.65L468.911,553.566L471.271,553.566L471.271,538.65ZM197.504,538.65L195.144,538.65L195.144,553.566L197.504,553.566L197.504,538.65ZM195.144,534.257L197.504,534.257L197.504,519.342L195.144,519.342L195.144,534.257ZM1004.65,534.257L1007.01,534.257L1007.01,519.342L1004.65,519.342L1004.65,534.257ZM468.911,534.257L471.271,534.257L471.271,519.342L468.911,519.342L468.911,534.257ZM869.339,534.257L871.699,534.257L871.699,519.342L869.339,519.342L869.339,534.257ZM735.601,534.257L737.961,534.257L737.961,519.342L735.601,519.342L735.601,534.257ZM60.616,534.257L62.976,534.257L62.976,519.342L60.616,519.342L60.616,534.257ZM601.863,534.257L604.223,534.257L604.223,519.342L601.863,519.342L601.863,534.257ZM1139.18,534.257L1141.54,534.257L1141.54,519.342L1139.18,519.342L1139.18,534.257ZM334.387,534.257L336.747,534.257L336.747,519.342L334.387,519.342L334.387,534.257ZM336.747,489.512L334.387,489.512L334.387,504.427L336.747,504.427L336.747,489.512ZM1004.65,504.427L1007.01,504.427L1007.01,489.512L1004.65,489.512L1004.65,504.427ZM197.504,489.512L195.144,489.512L195.144,504.427L197.504,504.427L197.504,489.512ZM60.616,504.427L62.976,504.427L62.976,489.512L60.616,489.512L60.616,504.427ZM871.699,489.512L869.339,489.512L869.339,504.427L871.699,504.427L871.699,489.512ZM1141.54,489.512L1139.18,489.512L1139.18,504.427L1141.54,504.427L1141.54,489.512ZM468.911,504.427L471.271,504.427L471.271,489.512L468.911,489.512L468.911,504.427ZM735.601,504.427L737.961,504.427L737.961,489.512L735.601,489.512L735.601,504.427ZM604.223,489.512L601.863,489.512L601.863,504.427L604.223,504.427L604.223,489.512ZM60.616,474.597L62.976,474.597L62.976,459.682L60.616,459.682L60.616,474.597ZM468.911,474.597L471.271,474.597L471.271,459.682L468.911,459.682L468.911,474.597ZM735.601,474.597L737.961,474.597L737.961,459.682L735.601,459.682L735.601,474.597ZM1133.21,468.013L1139.18,468.013L1139.18,474.597L1141.54,474.597L1141.54,468.013L1148.12,468.013L1148.12,465.653L1141.54,465.653L1141.54,459.682L1139.18,459.682L1139.18,465.653L1133.21,465.653L1133.21,468.013ZM596.27,468.013L601.863,468.013L601.863,474.597L604.223,474.597L604.223,468.013L611.185,468.013L611.185,465.653L604.223,465.653L604.223,459.682L601.863,459.682L601.863,465.653L596.27,465.653L596.27,468.013ZM864.737,468.013L869.339,468.013L869.339,474.597L871.699,474.597L871.699,468.013L879.652,468.013L879.652,465.653L871.699,465.653L871.699,459.682L869.339,459.682L869.339,465.653L864.737,465.653L864.737,468.013ZM189.173,468.013L195.144,468.013L195.144,474.597L197.504,474.597L197.504,468.013L204.088,468.013L204.088,465.653L197.504,465.653L197.504,459.682L195.144,459.682L195.144,465.653L189.173,465.653L189.173,468.013ZM327.802,468.013L334.387,468.013L334.387,474.597L336.747,474.597L336.747,468.013L342.717,468.013L342.717,465.653L336.747,465.653L336.747,459.682L334.387,459.682L334.387,465.653L327.802,465.653L327.802,468.013ZM1004.65,474.597L1007.01,474.597L1007.01,459.682L1004.65,459.682L1004.65,474.597ZM129.51,468.013L144.425,468.013L144.425,465.653L129.51,465.653L129.51,468.013ZM536.611,468.013L551.525,468.013L551.525,465.653L536.611,465.653L536.611,468.013ZM775.249,468.013L790.163,468.013L790.163,465.653L775.249,465.653L775.249,468.013ZM685.76,468.013L700.674,468.013L700.674,465.653L685.76,465.653L685.76,468.013ZM159.341,468.013L174.257,468.013L174.257,465.653L159.341,465.653L159.341,468.013ZM297.972,468.013L312.887,468.013L312.887,465.653L297.972,465.653L297.972,468.013ZM476.951,468.013L491.866,468.013L491.866,465.653L476.951,465.653L476.951,468.013ZM248.828,468.013L263.743,468.013L263.743,465.653L248.828,465.653L248.828,468.013ZM417.291,468.013L432.206,468.013L432.206,465.653L417.291,465.653L417.291,468.013ZM387.461,468.013L402.376,468.013L402.376,465.653L387.461,465.653L387.461,468.013ZM447.121,468.013L462.036,468.013L462.036,465.653L447.121,465.653L447.121,468.013ZM40.022,468.013L54.937,468.013L54.937,465.653L40.022,465.653L40.022,468.013ZM69.852,468.013L84.767,468.013L84.767,465.653L69.852,465.653L69.852,468.013ZM10.193,468.013L25.108,468.013L25.108,465.653L10.193,465.653L10.193,468.013ZM1043.72,468.013L1058.63,468.013L1058.63,465.653L1043.72,465.653L1043.72,468.013ZM1192.86,468.013L1207.78,468.013L1207.78,465.653L1192.86,465.653L1192.86,468.013ZM506.781,468.013L521.696,468.013L521.696,465.653L506.781,465.653L506.781,468.013ZM566.44,468.013L581.355,468.013L581.355,465.653L566.44,465.653L566.44,468.013ZM626.1,468.013L641.015,468.013L641.015,465.653L626.1,465.653L626.1,468.013ZM984.056,468.013L998.971,468.013L998.971,465.653L984.056,465.653L984.056,468.013ZM1073.54,468.013L1088.46,468.013L1088.46,465.653L1073.54,465.653L1073.54,468.013ZM745.419,468.013L760.334,468.013L760.334,465.653L745.419,465.653L745.419,468.013ZM805.078,468.013L819.993,468.013L819.993,465.653L805.078,465.653L805.078,468.013ZM655.929,468.013L670.844,468.013L670.844,465.653L655.929,465.653L655.929,468.013ZM1013.89,468.013L1028.8,468.013L1028.8,465.653L1013.89,465.653L1013.89,468.013ZM1103.38,468.013L1118.29,468.013L1118.29,465.653L1103.38,465.653L1103.38,468.013ZM894.567,468.013L909.482,468.013L909.482,465.653L894.567,465.653L894.567,468.013ZM99.682,468.013L114.594,468.013L114.594,465.653L99.682,465.653L99.682,468.013ZM1163.04,468.013L1177.95,468.013L1177.95,465.653L1163.04,465.653L1163.04,468.013ZM954.227,468.013L969.142,468.013L969.142,465.653L954.227,465.653L954.227,468.013ZM219.004,468.013L233.912,468.013L233.912,465.653L219.004,465.653L219.004,468.013ZM283.057,468.013L283.057,465.653L268.698,465.653L268.698,468.013L283.057,468.013ZM357.631,468.013L372.546,468.013L372.546,465.653L357.631,465.653L357.631,468.013ZM715.589,468.013L730.504,468.013L730.504,465.653L715.589,465.653L715.589,468.013ZM834.908,468.013L849.822,468.013L849.822,465.653L834.908,465.653L834.908,468.013ZM924.397,468.013L939.312,468.013L939.312,465.653L924.397,465.653L924.397,468.013ZM735.601,444.767L737.961,444.767L737.961,429.853L735.601,429.853L735.601,444.767ZM1139.18,444.767L1141.54,444.767L1141.54,429.853L1139.18,429.853L1139.18,444.767ZM468.911,444.767L471.271,444.767L471.271,429.853L468.911,429.853L468.911,444.767ZM601.863,444.767L604.223,444.767L604.223,429.853L601.863,429.853L601.863,444.767ZM195.144,444.767L197.504,444.767L197.504,429.853L195.144,429.853L195.144,444.767ZM334.387,444.767L336.747,444.767L336.747,429.853L334.387,429.853L334.387,444.767ZM869.339,444.767L871.699,444.767L871.699,429.853L869.339,429.853L869.339,444.767ZM1004.65,444.767L1007.01,444.767L1007.01,429.853L1004.65,429.853L1004.65,444.767ZM60.616,444.767L62.976,444.767L62.976,429.853L60.616,429.853L60.616,444.767ZM336.747,400.024L334.387,400.024L334.387,414.939L336.747,414.939L336.747,400.024ZM60.616,414.939L62.976,414.939L62.976,400.024L60.616,400.024L60.616,414.939ZM197.504,400.024L195.144,400.024L195.144,414.939L197.504,414.939L197.504,400.024ZM871.699,400.024L869.339,400.024L869.339,414.939L871.699,414.939L871.699,400.024ZM1004.65,414.939L1007.01,414.939L1007.01,400.024L1004.65,400.024L1004.65,414.939ZM604.223,400.024L601.863,400.024L601.863,414.939L604.223,414.939L604.223,400.024ZM735.601,414.939L737.961,414.939L737.961,400.024L735.601,400.024L735.601,414.939ZM468.911,414.939L471.271,414.939L471.271,400.024L468.911,400.024L468.911,414.939ZM1141.54,400.024L1139.18,400.024L1139.18,414.939L1141.54,414.939L1141.54,400.024ZM336.747,370.194L334.387,370.194L334.387,385.109L336.747,385.109L336.747,370.194ZM197.504,370.194L195.144,370.194L195.144,385.109L197.504,385.109L197.504,370.194ZM1004.65,385.109L1007.01,385.109L1007.01,370.194L1004.65,370.194L1004.65,385.109ZM871.699,370.194L869.339,370.194L869.339,385.109L871.699,385.109L871.699,370.194ZM735.601,385.109L737.961,385.109L737.961,370.194L735.601,370.194L735.601,385.109ZM604.223,370.194L601.863,370.194L601.863,385.109L604.223,385.109L604.223,370.194ZM468.911,385.109L471.271,385.109L471.271,370.194L468.911,370.194L468.911,385.109ZM60.616,385.109L62.976,385.109L62.976,370.194L60.616,370.194L60.616,385.109ZM1141.54,370.194L1139.18,370.194L1139.18,385.109L1141.54,385.109L1141.54,370.194ZM735.601,355.279L737.961,355.279L737.961,340.364L735.601,340.364L735.601,355.279ZM871.699,340.364L869.339,340.364L869.339,355.279L871.699,355.279L871.699,340.364ZM1141.54,340.364L1139.18,340.364L1139.18,355.279L1141.54,355.279L1141.54,340.364ZM468.911,355.279L471.271,355.279L471.271,340.364L468.911,340.364L468.911,355.279ZM197.504,340.364L195.144,340.364L195.144,355.279L197.504,355.279L197.504,340.364ZM1004.65,355.279L1007.01,355.279L1007.01,340.364L1004.65,340.364L1004.65,355.279ZM336.747,340.364L334.387,340.364L334.387,355.279L336.747,355.279L336.747,340.364ZM60.616,355.279L62.976,355.279L62.976,340.364L60.616,340.364L60.616,355.279ZM604.223,340.364L601.863,340.364L601.863,355.279L604.223,355.279L604.223,340.364ZM745.419,333.488L760.334,333.488L760.334,331.128L745.419,331.128L745.419,333.488ZM626.1,333.488L641.015,333.488L641.015,331.128L626.1,331.128L626.1,333.488ZM1073.54,333.488L1088.46,333.488L1088.46,331.128L1073.54,331.128L1073.54,333.488ZM417.291,333.488L432.206,333.488L432.206,331.128L417.291,331.128L417.291,333.488ZM894.567,333.488L909.482,333.488L909.482,331.128L894.567,331.128L894.567,333.488ZM566.44,333.488L581.355,333.488L581.355,331.128L566.44,331.128L566.44,333.488ZM655.929,333.488L670.844,333.488L670.844,331.128L655.929,331.128L655.929,333.488ZM1013.89,333.488L1028.8,333.488L1028.8,331.128L1013.89,331.128L1013.89,333.488ZM984.056,333.488L998.971,333.488L998.971,331.128L984.056,331.128L984.056,333.488ZM805.078,333.488L819.993,333.488L819.993,331.128L805.078,331.128L805.078,333.488ZM954.227,333.488L969.142,333.488L969.142,331.128L954.227,331.128L954.227,333.488ZM1043.72,333.488L1058.63,333.488L1058.63,331.128L1043.72,331.128L1043.72,333.488ZM924.397,333.488L939.312,333.488L939.312,331.128L924.397,331.128L924.397,333.488ZM596.27,333.488L611.185,333.488L611.185,331.128L596.27,331.128L596.27,333.488ZM864.737,333.488L879.652,333.488L879.652,331.128L864.737,331.128L864.737,333.488ZM506.781,333.488L521.696,333.488L521.696,331.128L506.781,331.128L506.781,333.488ZM715.589,333.488L730.504,333.488L730.504,331.128L715.589,331.128L715.589,333.488ZM357.631,333.488L372.546,333.488L372.546,331.128L357.631,331.128L357.631,333.488ZM189.173,333.488L204.088,333.488L204.088,331.128L189.173,331.128L189.173,333.488ZM387.461,333.488L402.376,333.488L402.376,331.128L387.461,331.128L387.461,333.488ZM10.193,333.488L25.108,333.488L25.108,331.128L10.193,331.128L10.193,333.488ZM69.852,333.488L84.767,333.488L84.767,331.128L69.852,331.128L69.852,333.488ZM99.682,333.488L114.594,333.488L114.594,331.128L99.682,331.128L99.682,333.488ZM1163.04,333.488L1177.95,333.488L1177.95,331.128L1163.04,331.128L1163.04,333.488ZM40.022,333.488L54.937,333.488L54.937,331.128L40.022,331.128L40.022,333.488ZM219.004,333.488L233.912,333.488L233.912,331.128L219.004,331.128L219.004,333.488ZM327.802,333.488L342.717,333.488L342.717,331.128L327.802,331.128L327.802,333.488ZM248.828,333.488L263.743,333.488L263.743,331.128L248.828,331.128L248.828,333.488ZM685.76,333.488L700.674,333.488L700.674,331.128L685.76,331.128L685.76,333.488ZM536.611,333.488L551.525,333.488L551.525,331.128L536.611,331.128L536.611,333.488ZM159.341,333.488L174.257,333.488L174.257,331.128L159.341,331.128L159.341,333.488ZM1103.38,333.488L1118.29,333.488L1118.29,331.128L1103.38,331.128L1103.38,333.488ZM775.249,333.488L790.163,333.488L790.163,331.128L775.249,331.128L775.249,333.488ZM283.057,333.488L283.057,331.128L268.698,331.128L268.698,333.488L283.057,333.488ZM297.972,333.488L312.887,333.488L312.887,331.128L297.972,331.128L297.972,333.488ZM834.908,333.488L849.822,333.488L849.822,331.128L834.908,331.128L834.908,333.488ZM1192.86,333.488L1207.78,333.488L1207.78,331.128L1192.86,331.128L1192.86,333.488ZM1133.21,333.488L1148.12,333.488L1148.12,331.128L1133.21,331.128L1133.21,333.488ZM447.121,333.488L462.036,333.488L462.036,331.128L447.121,331.128L447.121,333.488ZM129.51,333.488L144.425,333.488L144.425,331.128L129.51,331.128L129.51,333.488ZM476.951,333.488L491.866,333.488L491.866,331.128L476.951,331.128L476.951,333.488ZM195.144,325.449L197.504,325.449L197.504,310.534L195.144,310.534L195.144,325.449ZM1139.18,325.449L1141.54,325.449L1141.54,310.534L1139.18,310.534L1139.18,325.449ZM1004.65,325.449L1007.01,325.449L1007.01,310.534L1004.65,310.534L1004.65,325.449ZM60.616,325.449L62.976,325.449L62.976,310.534L60.616,310.534L60.616,325.449ZM334.387,325.449L336.747,325.449L336.747,310.534L334.387,310.534L334.387,325.449ZM869.339,325.449L871.699,325.449L871.699,310.534L869.339,310.534L869.339,325.449ZM735.601,325.449L737.961,325.449L737.961,310.534L735.601,310.534L735.601,325.449ZM468.911,325.449L471.271,325.449L471.271,310.534L468.911,310.534L468.911,325.449ZM601.863,325.449L604.223,325.449L604.223,310.534L601.863,310.534L601.863,325.449ZM468.911,295.62L471.271,295.62L471.271,280.705L468.911,280.705L468.911,295.62ZM197.504,280.705L195.144,280.705L195.144,295.62L197.504,295.62L197.504,280.705ZM871.699,280.705L869.339,280.705L869.339,295.62L871.699,295.62L871.699,280.705ZM336.747,280.705L334.387,280.705L334.387,295.62L336.747,295.62L336.747,280.705ZM604.223,280.705L601.863,280.705L601.863,295.62L604.223,295.62L604.223,280.705ZM1141.54,280.705L1139.18,280.705L1139.18,295.62L1141.54,295.62L1141.54,280.705ZM1004.65,295.62L1007.01,295.62L1007.01,280.705L1004.65,280.705L1004.65,295.62ZM60.616,295.62L62.976,295.62L62.976,280.705L60.616,280.705L60.616,295.62ZM735.601,295.62L737.961,295.62L737.961,280.705L735.601,280.705L735.601,295.62ZM735.601,265.79L737.961,265.79L737.961,250.875L735.601,250.875L735.601,265.79ZM60.616,265.79L62.976,265.79L62.976,250.875L60.616,250.875L60.616,265.79ZM871.699,250.875L869.339,250.875L869.339,265.79L871.699,265.79L871.699,250.875ZM197.504,250.875L195.144,250.875L195.144,265.79L197.504,265.79L197.504,250.875ZM604.223,250.875L601.863,250.875L601.863,265.79L604.223,265.79L604.223,250.875ZM336.747,250.875L334.387,250.875L334.387,265.79L336.747,265.79L336.747,250.875ZM1004.65,265.79L1007.01,265.79L1007.01,250.875L1004.65,250.875L1004.65,265.79ZM1141.54,250.875L1139.18,250.875L1139.18,265.79L1141.54,265.79L1141.54,250.875ZM468.911,265.79L471.271,265.79L471.271,250.875L468.911,250.875L468.911,265.79ZM197.504,221.045L195.144,221.045L195.144,235.96L197.504,235.96L197.504,221.045ZM604.223,221.045L601.863,221.045L601.863,235.96L604.223,235.96L604.223,221.045ZM336.747,221.045L334.387,221.045L334.387,235.96L336.747,235.96L336.747,221.045ZM60.616,235.96L62.976,235.96L62.976,221.045L60.616,221.045L60.616,235.96ZM871.699,221.045L869.339,221.045L869.339,235.96L871.699,235.96L871.699,221.045ZM468.911,235.96L471.271,235.96L471.271,221.045L468.911,221.045L468.911,235.96ZM1004.65,235.96L1007.01,235.96L1007.01,221.045L1004.65,221.045L1004.65,235.96ZM1141.54,221.045L1139.18,221.045L1139.18,235.96L1141.54,235.96L1141.54,221.045ZM735.601,235.96L737.961,235.96L737.961,221.045L735.601,221.045L735.601,235.96ZM1133.21,200.537L1139.18,200.537L1139.18,206.13L1141.54,206.13L1141.54,200.537L1148.12,200.537L1148.12,198.177L1141.54,198.177L1141.54,191.215L1139.18,191.215L1139.18,198.177L1133.21,198.177L1133.21,200.537ZM60.616,206.13L62.976,206.13L62.976,191.215L60.616,191.215L60.616,206.13ZM596.27,200.537L601.863,200.537L601.863,206.13L604.223,206.13L604.223,200.537L611.185,200.537L611.185,198.177L604.223,198.177L604.223,191.215L601.863,191.215L601.863,198.177L596.27,198.177L596.27,200.537ZM864.737,200.537L869.339,200.537L869.339,206.13L871.699,206.13L871.699,200.537L879.652,200.537L879.652,198.177L871.699,198.177L871.699,191.215L869.339,191.215L869.339,198.177L864.737,198.177L864.737,200.537ZM189.173,200.537L195.144,200.537L195.144,206.13L197.504,206.13L197.504,200.537L204.088,200.537L204.088,198.177L197.504,198.177L197.504,191.215L195.144,191.215L195.144,198.177L189.173,198.177L189.173,200.537ZM327.802,200.537L334.387,200.537L334.387,206.13L336.747,206.13L336.747,200.537L342.717,200.537L342.717,198.177L336.747,198.177L336.747,191.215L334.387,191.215L334.387,198.177L327.802,198.177L327.802,200.537ZM735.601,206.13L737.961,206.13L737.961,191.215L735.601,191.215L735.601,206.13ZM1004.65,206.13L1007.01,206.13L1007.01,191.215L1004.65,191.215L1004.65,206.13ZM468.911,206.13L471.271,206.13L471.271,191.215L468.911,191.215L468.911,206.13ZM1073.54,200.537L1088.46,200.537L1088.46,198.177L1073.54,198.177L1073.54,200.537ZM99.682,200.537L114.594,200.537L114.594,198.177L99.682,198.177L99.682,200.537ZM1013.89,200.537L1028.8,200.537L1028.8,198.177L1013.89,198.177L1013.89,200.537ZM805.078,200.537L819.993,200.537L819.993,198.177L805.078,198.177L805.078,200.537ZM1103.38,200.537L1118.29,200.537L1118.29,198.177L1103.38,198.177L1103.38,200.537ZM655.929,200.537L670.844,200.537L670.844,198.177L655.929,198.177L655.929,200.537ZM745.419,200.537L760.334,200.537L760.334,198.177L745.419,198.177L745.419,200.537ZM775.249,200.537L790.163,200.537L790.163,198.177L775.249,198.177L775.249,200.537ZM715.589,200.537L730.504,200.537L730.504,198.177L715.589,198.177L715.589,200.537ZM924.397,200.537L939.312,200.537L939.312,198.177L924.397,198.177L924.397,200.537ZM626.1,200.537L641.015,200.537L641.015,198.177L626.1,198.177L626.1,200.537ZM536.611,200.537L551.525,200.537L551.525,198.177L536.611,198.177L536.611,200.537ZM357.631,200.537L372.546,200.537L372.546,198.177L357.631,198.177L357.631,200.537ZM1163.04,200.537L1177.95,200.537L1177.95,198.177L1163.04,198.177L1163.04,200.537ZM219.004,200.537L233.912,200.537L233.912,198.177L219.004,198.177L219.004,200.537ZM954.227,200.537L969.142,200.537L969.142,198.177L954.227,198.177L954.227,200.537ZM506.781,200.537L521.696,200.537L521.696,198.177L506.781,198.177L506.781,200.537ZM1043.72,200.537L1058.63,200.537L1058.63,198.177L1043.72,198.177L1043.72,200.537ZM159.341,200.537L174.257,200.537L174.257,198.177L159.341,198.177L159.341,200.537ZM1192.86,200.537L1207.78,200.537L1207.78,198.177L1192.86,198.177L1192.86,200.537ZM297.972,200.537L312.887,200.537L312.887,198.177L297.972,198.177L297.972,200.537ZM984.056,200.537L998.971,200.537L998.971,198.177L984.056,198.177L984.056,200.537ZM387.461,200.537L402.376,200.537L402.376,198.177L387.461,198.177L387.461,200.537ZM283.057,200.537L283.057,198.177L268.698,198.177L268.698,200.537L283.057,200.537ZM834.908,200.537L849.822,200.537L849.822,198.177L834.908,198.177L834.908,200.537ZM566.44,200.537L581.355,200.537L581.355,198.177L566.44,198.177L566.44,200.537ZM10.193,200.537L25.108,200.537L25.108,198.177L10.193,198.177L10.193,200.537ZM894.567,200.537L909.482,200.537L909.482,198.177L894.567,198.177L894.567,200.537ZM476.951,200.537L491.866,200.537L491.866,198.177L476.951,198.177L476.951,200.537ZM447.121,200.537L462.036,200.537L462.036,198.177L447.121,198.177L447.121,200.537ZM417.291,200.537L432.206,200.537L432.206,198.177L417.291,198.177L417.291,200.537ZM248.828,200.537L263.743,200.537L263.743,198.177L248.828,198.177L248.828,200.537ZM685.76,200.537L700.674,200.537L700.674,198.177L685.76,198.177L685.76,200.537ZM129.51,200.537L144.425,200.537L144.425,198.177L129.51,198.177L129.51,200.537ZM69.852,200.537L84.767,200.537L84.767,198.177L69.852,198.177L69.852,200.537ZM40.022,200.537L54.937,200.537L54.937,198.177L40.022,198.177L40.022,200.537ZM1004.65,176.3L1007.01,176.3L1007.01,161.386L1004.65,161.386L1004.65,176.3ZM735.601,176.3L737.961,176.3L737.961,161.386L735.601,161.386L735.601,176.3ZM1139.18,176.3L1141.54,176.3L1141.54,161.386L1139.18,161.386L1139.18,176.3ZM468.911,176.3L471.271,176.3L471.271,161.386L468.911,161.386L468.911,176.3ZM869.339,176.3L871.699,176.3L871.699,161.386L869.339,161.386L869.339,176.3ZM195.144,176.3L197.504,176.3L197.504,161.386L195.144,161.386L195.144,176.3ZM60.616,176.3L62.976,176.3L62.976,161.386L60.616,161.386L60.616,176.3ZM334.387,176.3L336.747,176.3L336.747,161.386L334.387,161.386L334.387,176.3ZM601.863,176.3L604.223,176.3L604.223,161.386L601.863,161.386L601.863,176.3ZM1141.54,131.556L1139.18,131.556L1139.18,146.471L1141.54,146.471L1141.54,131.556ZM604.223,131.556L601.863,131.556L601.863,146.471L604.223,146.471L604.223,131.556ZM871.699,131.556L869.339,131.556L869.339,146.471L871.699,146.471L871.699,131.556ZM336.747,131.556L334.387,131.556L334.387,146.471L336.747,146.471L336.747,131.556ZM60.616,146.471L62.976,146.471L62.976,131.556L60.616,131.556L60.616,146.471ZM735.601,146.471L737.961,146.471L737.961,131.556L735.601,131.556L735.601,146.471ZM197.504,131.556L195.144,131.556L195.144,146.471L197.504,146.471L197.504,131.556ZM1004.65,146.471L1007.01,146.471L1007.01,131.556L1004.65,131.556L1004.65,146.471ZM468.911,146.471L471.271,146.471L471.271,131.556L468.911,131.556L468.911,146.471ZM1004.65,116.641L1007.01,116.641L1007.01,101.726L1004.65,101.726L1004.65,116.641ZM197.504,101.726L195.144,101.726L195.144,116.641L197.504,116.641L197.504,101.726ZM60.616,116.641L62.976,116.641L62.976,101.726L60.616,101.726L60.616,116.641ZM604.223,101.726L601.863,101.726L601.863,116.641L604.223,116.641L604.223,101.726ZM871.699,101.726L869.339,101.726L869.339,116.641L871.699,116.641L871.699,101.726ZM336.747,101.726L334.387,101.726L334.387,116.641L336.747,116.641L336.747,101.726ZM735.601,116.641L737.961,116.641L737.961,101.726L735.601,101.726L735.601,116.641ZM1141.54,101.726L1139.18,101.726L1139.18,116.641L1141.54,116.641L1141.54,101.726ZM468.911,116.641L471.271,116.641L471.271,101.726L468.911,101.726L468.911,116.641ZM468.911,86.811L471.271,86.811L471.271,71.896L468.911,71.896L468.911,86.811ZM735.601,86.811L737.961,86.811L737.961,71.896L735.601,71.896L735.601,86.811ZM1004.65,86.811L1007.01,86.811L1007.01,71.896L1004.65,71.896L1004.65,86.811ZM60.616,86.811L62.976,86.811L62.976,71.896L60.616,71.896L60.616,86.811ZM1141.54,71.896L1139.18,71.896L1139.18,86.811L1141.54,86.811L1141.54,71.896ZM197.504,71.896L195.144,71.896L195.144,86.811L197.504,86.811L197.504,71.896ZM871.699,71.896L869.339,71.896L869.339,86.811L871.699,86.811L871.699,71.896ZM604.223,71.896L601.863,71.896L601.863,86.811L604.223,86.811L604.223,71.896ZM336.747,71.896L334.387,71.896L334.387,86.811L336.747,86.811L336.747,71.896ZM219.004,66.799L233.912,66.799L233.912,64.438L219.004,64.438L219.004,66.799ZM283.057,66.799L283.057,64.438L268.698,64.438L268.698,66.799L283.057,66.799ZM1192.86,66.799L1207.78,66.799L1207.78,64.438L1192.86,64.438L1192.86,66.799ZM1163.04,66.799L1177.95,66.799L1177.95,64.438L1163.04,64.438L1163.04,66.799ZM1103.38,66.799L1118.29,66.799L1118.29,64.438L1103.38,64.438L1103.38,66.799ZM159.341,66.799L174.257,66.799L174.257,64.438L159.341,64.438L159.341,66.799ZM99.682,66.799L114.594,66.799L114.594,64.438L99.682,64.438L99.682,66.799ZM1043.72,66.799L1058.63,66.799L1058.63,64.438L1043.72,64.438L1043.72,66.799ZM834.908,66.799L849.822,66.799L849.822,64.438L834.908,64.438L834.908,66.799ZM685.76,66.799L700.674,66.799L700.674,64.438L685.76,64.438L685.76,66.799ZM536.611,66.799L551.525,66.799L551.525,64.438L536.611,64.438L536.611,66.799ZM775.249,66.799L790.163,66.799L790.163,64.438L775.249,64.438L775.249,66.799ZM954.227,66.799L969.142,66.799L969.142,64.438L954.227,64.438L954.227,66.799ZM1133.21,66.799L1148.12,66.799L1148.12,64.438L1133.21,64.438L1133.21,66.799ZM566.44,66.799L581.355,66.799L581.355,64.438L566.44,64.438L566.44,66.799ZM655.929,66.799L670.844,66.799L670.844,64.438L655.929,64.438L655.929,66.799ZM894.567,66.799L909.482,66.799L909.482,64.438L894.567,64.438L894.567,66.799ZM506.781,66.799L521.696,66.799L521.696,64.438L506.781,64.438L506.781,66.799ZM864.737,66.799L879.652,66.799L879.652,64.438L864.737,64.438L864.737,66.799ZM357.631,66.799L372.546,66.799L372.546,64.438L357.631,64.438L357.631,66.799ZM745.419,66.799L760.334,66.799L760.334,64.438L745.419,64.438L745.419,66.799ZM984.056,66.799L998.971,66.799L998.971,64.438L984.056,64.438L984.056,66.799ZM805.078,66.799L819.993,66.799L819.993,64.438L805.078,64.438L805.078,66.799ZM596.27,66.799L611.185,66.799L611.185,64.438L596.27,64.438L596.27,66.799ZM189.173,66.799L204.088,66.799L204.088,64.438L189.173,64.438L189.173,66.799ZM10.193,66.799L25.108,66.799L25.108,64.438L10.193,64.438L10.193,66.799ZM40.022,66.799L54.937,66.799L54.937,64.438L40.022,64.438L40.022,66.799ZM69.852,66.799L84.767,66.799L84.767,64.438L69.852,64.438L69.852,66.799ZM387.461,66.799L402.376,66.799L402.376,64.438L387.461,64.438L387.461,66.799ZM248.828,66.799L263.743,66.799L263.743,64.438L248.828,64.438L248.828,66.799ZM129.51,66.799L144.425,66.799L144.425,64.438L129.51,64.438L129.51,66.799ZM476.951,66.799L491.866,66.799L491.866,64.438L476.951,64.438L476.951,66.799ZM417.291,66.799L432.206,66.799L432.206,64.438L417.291,64.438L417.291,66.799ZM297.972,66.799L312.887,66.799L312.887,64.438L297.972,64.438L297.972,66.799ZM327.802,66.799L342.717,66.799L342.717,64.438L327.802,64.438L327.802,66.799ZM447.121,66.799L462.036,66.799L462.036,64.438L447.121,64.438L447.121,66.799ZM1073.54,66.799L1088.46,66.799L1088.46,64.438L1073.54,64.438L1073.54,66.799ZM1013.89,66.799L1028.8,66.799L1028.8,64.438L1013.89,64.438L1013.89,66.799ZM924.397,66.799L939.312,66.799L939.312,64.438L924.397,64.438L924.397,66.799ZM626.1,66.799L641.015,66.799L641.015,64.438L626.1,64.438L626.1,66.799ZM715.589,66.799L730.504,66.799L730.504,64.438L715.589,64.438L715.589,66.799ZM1139.18,56.981L1141.54,56.981L1141.54,42.066L1139.18,42.066L1139.18,56.981ZM468.911,56.981L471.271,56.981L471.271,42.066L468.911,42.066L468.911,56.981ZM735.601,56.981L737.961,56.981L737.961,42.066L735.601,42.066L735.601,56.981ZM1004.65,56.981L1007.01,56.981L1007.01,42.066L1004.65,42.066L1004.65,56.981ZM869.339,56.981L871.699,56.981L871.699,42.066L869.339,42.066L869.339,56.981ZM334.387,56.981L336.747,56.981L336.747,42.066L334.387,42.066L334.387,56.981ZM601.863,56.981L604.223,56.981L604.223,42.066L601.863,42.066L601.863,56.981ZM195.144,56.981L197.504,56.981L197.504,42.066L195.144,42.066L195.144,56.981ZM60.616,56.981L62.976,56.981L62.976,42.066L60.616,42.066L60.616,56.981ZM197.504,12.236L195.144,12.236L195.144,27.151L197.504,27.151L197.504,12.236ZM735.601,27.151L737.961,27.151L737.961,12.236L735.601,12.236L735.601,27.151ZM871.699,12.236L869.339,12.236L869.339,27.151L871.699,27.151L871.699,12.236ZM336.747,12.236L334.387,12.236L334.387,27.151L336.747,27.151L336.747,12.236ZM1004.65,27.151L1007.01,27.151L1007.01,12.236L1004.65,12.236L1004.65,27.151ZM604.223,12.236L601.863,12.236L601.863,27.151L604.223,27.151L604.223,12.236ZM1141.54,12.236L1139.18,12.236L1139.18,27.151L1141.54,27.151L1141.54,12.236ZM468.911,27.151L471.271,27.151L471.271,12.236L468.911,12.236L468.911,27.151ZM60.616,27.151L62.976,27.151L62.976,12.236L60.616,12.236L60.616,27.151Z" style="fill:#334155;fill-rule:nonzero;"/>
    </g>
</svg>
